<?xml version="1.0" encoding="UTF-8"?>
<svg xmlns="http://www.w3.org/2000/svg" xmlns:xlink="http://www.w3.org/1999/xlink" width="130pt" height="130pt" viewBox="0 0 130 130" version="1.1">
<g id="surface1">
<path style=" stroke:none;fill-rule:nonzero;fill:rgb(39.607843%,50.980392%,58.823529%);fill-opacity:1;" d="M 65.695312 74.324219 C 65.503906 76.578125 67.035156 88.515625 67.824219 93.199219 C 68.199219 95.417969 69.230469 99.03125 68.859375 100.949219 C 68.332031 103.621094 68.175781 107.082031 68.46875 109.097656 C 68.652344 110.320312 69.230469 115.964844 68.402344 118.027344 C 67.96875 119.113281 67.175781 124.660156 67.175781 124.660156 C 65.105469 129.882812 66.273438 129.628906 66.273438 129.628906 C 66.914062 130.414062 68.011719 129.6875 68.011719 129.6875 C 68.847656 130.222656 69.425781 129.5625 69.425781 129.5625 C 70.144531 130.15625 70.980469 129.488281 70.980469 129.488281 C 71.882812 129.957031 72.71875 129.09375 72.71875 129.09375 C 73.238281 129.355469 73.363281 129.027344 73.363281 129.027344 C 74.917969 128.925781 72.496094 123.953125 72.496094 123.953125 C 71.917969 119.488281 73.074219 117.003906 73.074219 117.003906 C 76.855469 105.785156 77.046875 102.808594 75.535156 98.578125 C 75.109375 97.359375 75 96.875 75.199219 96.34375 C 75.652344 95.121094 75.320312 90.203125 75.875 88.25 C 76.9375 84.484375 77.992188 74.929688 78.539062 70.472656 C 79.277344 64.46875 75.929688 56.414062 75.929688 56.414062 C 75.195312 53.140625 76.269531 41.464844 76.269531 41.464844 C 77.773438 43.800781 77.714844 47.921875 77.714844 47.921875 C 77.476562 52.242188 81.207031 58.847656 81.207031 58.847656 C 82.996094 61.578125 83.675781 64.167969 83.675781 64.359375 C 83.675781 65.144531 83.503906 67.050781 83.503906 67.050781 L 83.574219 68.707031 C 83.601562 69.128906 83.839844 70.582031 83.800781 71.285156 C 83.523438 75.609375 84.210938 74.796875 84.210938 74.796875 C 84.789062 74.796875 85.425781 71.316406 85.425781 71.316406 C 85.425781 72.214844 85.207031 74.898438 85.691406 75.914062 C 86.269531 77.121094 86.695312 75.703125 86.703125 75.421875 C 86.855469 69.914062 87.1875 71.359375 87.1875 71.359375 C 87.507812 75.824219 87.90625 76.832031 88.613281 76.484375 C 89.152344 76.226562 88.660156 71.125 88.660156 71.125 C 89.582031 74.15625 90.277344 74.636719 90.277344 74.636719 C 91.796875 75.703125 90.859375 72.757812 90.648438 72.175781 C 89.523438 69.074219 89.488281 68 89.488281 68 C 90.894531 70.785156 91.953125 70.683594 91.953125 70.683594 C 93.320312 70.246094 90.753906 66.300781 89.25 64.414062 C 88.484375 63.449219 87.492188 62.160156 87.207031 61.394531 C 86.738281 60.097656 86.382812 55.929688 86.382812 55.929688 C 86.242188 51.011719 85.027344 48.875 85.027344 48.875 C 82.949219 45.546875 82.554688 39.335938 82.554688 39.335938 L 82.464844 28.855469 C 81.734375 21.707031 76.46875 21.65625 76.46875 21.65625 C 71.140625 20.863281 70.402344 19.144531 70.402344 19.144531 C 69.273438 17.519531 69.917969 14.410156 69.917969 14.410156 C 70.855469 13.648438 71.214844 11.625 71.214844 11.625 C 72.769531 10.433594 72.691406 8.691406 71.976562 8.710938 C 71.398438 8.726562 71.53125 8.25 71.53125 8.25 C 72.5 0.402344 65.535156 0 65.535156 0 L 64.46875 0 C 64.46875 0 57.5 0.402344 58.46875 8.246094 C 58.46875 8.246094 58.601562 8.722656 58.019531 8.707031 C 57.304688 8.691406 57.238281 10.433594 58.785156 11.625 C 58.785156 11.625 59.144531 13.644531 60.082031 14.40625 C 60.082031 14.40625 60.726562 17.519531 59.597656 19.140625 C 59.597656 19.140625 58.859375 20.859375 53.53125 21.652344 C 53.53125 21.652344 48.257812 21.707031 47.539062 28.855469 L 47.4375 39.335938 C 47.4375 39.335938 47.054688 45.542969 44.96875 48.871094 C 44.96875 48.871094 43.757812 51.007812 43.617188 55.925781 C 43.617188 55.925781 43.261719 60.097656 42.796875 61.394531 C 42.511719 62.15625 41.523438 63.445312 40.75 64.410156 C 39.230469 66.296875 36.683594 70.230469 38.046875 70.679688 C 38.046875 70.679688 39.109375 70.785156 40.507812 68 C 40.507812 68 40.480469 69.066406 39.359375 72.171875 C 39.136719 72.75 38.199219 75.695312 39.71875 74.636719 C 39.71875 74.636719 40.421875 74.152344 41.335938 71.121094 C 41.335938 71.121094 40.847656 76.226562 41.394531 76.480469 C 42.105469 76.832031 42.496094 75.820312 42.816406 71.355469 C 42.816406 71.355469 43.148438 69.914062 43.300781 75.417969 C 43.308594 75.703125 43.726562 77.117188 44.308594 75.910156 C 44.796875 74.898438 44.578125 72.214844 44.578125 71.3125 C 44.578125 71.3125 45.207031 74.792969 45.796875 74.792969 C 45.796875 74.792969 46.488281 75.605469 46.203125 71.28125 C 46.15625 70.578125 46.40625 69.128906 46.4375 68.703125 L 46.503906 67.046875 C 46.503906 67.046875 46.332031 65.148438 46.332031 64.355469 C 46.332031 64.160156 47.007812 61.574219 48.800781 58.847656 C 48.800781 58.847656 52.527344 52.238281 52.285156 47.917969 C 52.285156 47.917969 52.234375 43.796875 53.734375 41.464844 C 53.734375 41.464844 54.800781 53.136719 54.078125 56.414062 C 54.078125 56.414062 50.726562 64.464844 51.464844 70.46875 C 52.011719 74.9375 53.058594 84.480469 54.128906 88.25 C 54.6875 90.199219 54.355469 95.117188 54.804688 96.34375 C 55.003906 96.878906 54.898438 97.367188 54.464844 98.578125 C 52.960938 102.804688 53.152344 105.78125 56.9375 117 C 56.9375 117 58.101562 119.484375 57.511719 123.953125 C 57.511719 123.953125 55.097656 128.925781 56.644531 129.023438 C 56.644531 129.023438 56.765625 129.355469 57.289062 129.09375 C 57.289062 129.09375 58.125 129.957031 59.027344 129.488281 C 59.027344 129.488281 59.863281 130.15625 60.578125 129.5625 C 60.578125 129.5625 61.152344 130.21875 61.988281 129.6875 C 61.988281 129.6875 63.085938 130.429688 63.738281 129.625 C 63.738281 129.625 64.898438 129.882812 62.835938 124.65625 C 62.835938 124.65625 62.046875 119.117188 61.609375 118.027344 C 60.777344 115.964844 61.367188 110.308594 61.542969 109.097656 C 61.828125 107.070312 61.675781 103.617188 61.152344 100.945312 C 60.773438 99.03125 61.804688 95.417969 62.1875 93.195312 C 62.972656 88.519531 64.507812 76.578125 64.316406 74.320312 L 64.953125 74.542969 C 65.40625 74.546875 65.695312 74.324219 65.695312 74.324219 Z M 65.695312 74.324219 "/>
</g>
</svg>
